<?xml version="1.0" encoding="utf-8"?>
<!-- Generator: Adobe Illustrator 21.0.0, SVG Export Plug-In . SVG Version: 6.00 Build 0)  -->
<svg version="1.1"
	 id="Calque_1" xmlns:cc="http://creativecommons.org/ns#" xmlns:dc="http://purl.org/dc/elements/1.1/" xmlns:inkscape="http://www.inkscape.org/namespaces/inkscape" xmlns:rdf="http://www.w3.org/1999/02/22-rdf-syntax-ns#" xmlns:sodipodi="http://sodipodi.sourceforge.net/DTD/sodipodi-0.dtd" xmlns:svg="http://www.w3.org/2000/svg"
	 xmlns="http://www.w3.org/2000/svg" xmlns:xlink="http://www.w3.org/1999/xlink" x="0px" y="0px" viewBox="0 0 283.5 283.5"
	 style="enable-background:new 0 0 283.5 283.5;" xml:space="preserve">
<style type="text/css">
	.st0{fill:#FFFFFF;stroke:#FFFFFF;stroke-miterlimit:10;}
</style>
<g transform="translate(0,-952.36218)">
	<path class="st0" d="M221.7,980.1c-27,0-49.1,22.1-49.1,49.1c0,1,0.1,1.9,0.2,2.9H66.4l-9.7-34.2c-1-3.6-4.6-6.2-8.3-6.2H19.5
		c-12.5,0.7-10.3,17.8,0,17.3h22.4c3.6,11.6,6.4,23.6,10.1,35.1c7.6,30.3,15.2,60.8,22.7,91.1c0.9,3.7,4.6,6.6,8.4,6.6h127
		c3.8,0,7.5-2.9,8.4-6.6l14.5-58.4c21.5-5.2,37.7-24.6,37.7-47.6C270.7,1002.2,248.7,980.1,221.7,980.1z M221.7,997.5
		c17.6,0,31.8,14.1,31.8,31.8c0,17.6-14.1,31.8-31.8,31.8s-31.8-14.1-31.8-31.8C189.9,1011.6,204,997.5,221.7,997.5z M221.7,1000.4
		c-4.8,0-8.7,3.9-8.7,8.7v11.5h-11.5c-4.8,0-8.7,3.9-8.7,8.7s3.9,8.7,8.7,8.7H213v11.5c0,4.8,3.9,8.7,8.7,8.7s8.7-3.9,8.7-8.7V1038
		h11.5c4.8,0,8.7-3.9,8.7-8.7c0-4.8-3.9-8.7-8.7-8.7h-11.5V1009C230.3,1004.2,226.4,1000.4,221.7,1000.4z M71.1,1049.4H177
		c6.8,15,21.1,26,38,28.3l-11.6,46.7H89.9C89.9,1124.5,71.1,1049.4,71.1,1049.4z M109.1,1147.6c-14.2,0-26,11.7-26,26
		c0,14.2,11.7,26,26,26c14.2,0,26-11.7,26-26C135.1,1159.3,123.3,1147.6,109.1,1147.6z M184.1,1147.6c-14.2,0-26,11.7-26,26
		c0,14.2,11.7,26,26,26c14.2,0,26-11.7,26-26C210.1,1159.3,198.4,1147.6,184.1,1147.6z M109.1,1164.9c4.9,0,8.7,3.8,8.7,8.7
		c0,4.9-3.8,8.7-8.7,8.7c-4.9,0-8.7-3.8-8.7-8.7C100.4,1168.7,104.2,1164.9,109.1,1164.9z M184.1,1164.9c4.9,0,8.7,3.8,8.7,8.7
		c0,4.9-3.8,8.7-8.7,8.7s-8.7-3.8-8.7-8.7C175.5,1168.7,179.3,1164.9,184.1,1164.9z"/>
</g>
</svg>
