<?xml version="1.0" encoding="utf-8"?>
<!-- Generator: Adobe Illustrator 21.0.0, SVG Export Plug-In . SVG Version: 6.00 Build 0)  -->
<svg version="1.1"
	 id="Calque_1" xmlns:cc="http://creativecommons.org/ns#" xmlns:dc="http://purl.org/dc/elements/1.1/" xmlns:inkscape="http://www.inkscape.org/namespaces/inkscape" xmlns:rdf="http://www.w3.org/1999/02/22-rdf-syntax-ns#" xmlns:sodipodi="http://sodipodi.sourceforge.net/DTD/sodipodi-0.dtd" xmlns:svg="http://www.w3.org/2000/svg"
	 xmlns="http://www.w3.org/2000/svg" xmlns:xlink="http://www.w3.org/1999/xlink" x="0px" y="0px" viewBox="0 0 100 100"
	 style="enable-background:new 0 0 100 100;" xml:space="preserve">
<style type="text/css">
	.st0{fill:#FFFFFF;}
	.st1{fill:#FFFFFF;stroke:#FFFFFF;stroke-miterlimit:10;}
	.st2{fill:#1D1D1B;}
</style>
<g transform="translate(0,-952.36216)">
	<path class="st0" d="M48.4,967.6c-4.6,0-8.4,3.8-8.4,8.4c0,2,0.7,3.8,1.8,5.2l-3.9,10.2l5.1-2.1l2.5,4.8l2.8-7.8l3,7.8l2.3-4.9
		l5.2,2.3l-4.1-10.1c1.2-1.5,1.9-3.3,1.9-5.4C56.8,971.4,53,967.6,48.4,967.6L48.4,967.6z M48.4,969.6c3.5,0,6.4,2.9,6.4,6.4
		c0,3.6-2.8,6.4-6.4,6.4S42,979.6,42,976C42,972.5,44.9,969.6,48.4,969.6z"/>
	<path class="st1" d="M80.3,1022.3c-7.9,0-14.3,6.4-14.3,14.3c0,0,0,0,0,0c0,7.9,6.4,14.3,14.3,14.3c7.9,0,14.3-6.4,14.3-14.3
		C94.5,1028.7,88.1,1022.3,80.3,1022.3C80.3,1022.3,80.3,1022.3,80.3,1022.3z"/>
	<path class="st0" d="M15.5,961.2c0,26.1,0,52.3,0,78.4h48.4v-2H17.5v-74.4h61.8v57l2,0v-59L15.5,961.2z"/>
	<path class="st0" d="M28.4,998.7v2h39.9v-2H28.4z"/>
	<path class="st0" d="M35.9,1022.6v2h25v-2C60.9,1022.6,35.9,1022.6,35.9,1022.6z"/>
	<path class="st0" d="M28.4,1006.7v2h39.9v-2H28.4z"/>
	<path class="st0" d="M28.4,1014.6v2h39.9v-2H28.4z"/>
	<g>
		<path class="st2" d="M89.5,1029.5l-0.2-0.4l-3.1,3.1c0,0-0.6,0.5-1.2,0.5c-0.4,0-0.8-0.2-1.2-0.5c-1.1-1.1-0.2-2.3-0.1-2.4
			l3.2-3.2l-0.4-0.2c0,0-0.9-0.4-2.1-0.4c-1.1,0-2.7,0.3-4.4,1.8c-2.4,2.1-1.2,5.1-0.8,5.9c-1,1-2.4,2.2-3.7,3.4
			c-1.4,1.2-2.9,2.5-3.9,3.6l0,0c-0.7,1-0.7,2.1-0.2,3.1c0.5,1,1.6,1.7,2.7,1.7c0.6,0,1.2-0.2,1.7-0.5l0,0c1.1-1.1,2.4-2.5,3.6-3.9
			c1.2-1.3,2.4-2.7,3.4-3.7c0.3,0.1,1,0.3,1.9,0.3c1.4,0,2.7-0.5,3.7-1.4C91.6,1032.9,89.6,1029.5,89.5,1029.5z M87.7,1035.6
			c-0.9,0.8-2,1.2-3.2,1.2c-1.1,0-1.8-0.3-1.8-0.3l-0.2-0.1l-0.2,0.2c-1.1,1.1-2.4,2.5-3.6,3.9c-1.2,1.4-2.5,2.8-3.5,3.9
			c-0.4,0.3-0.9,0.4-1.3,0.4c-0.9,0-1.7-0.5-2.1-1.3c-0.4-0.8-0.4-1.6,0.1-2.4c1.1-1.1,2.5-2.3,3.9-3.5c1.4-1.2,2.9-2.5,3.9-3.6
			l0.2-0.2l-0.1-0.2c0,0-1.8-3.3,0.6-5.3c1.2-1.1,2.5-1.6,4-1.6c0.6,0,1,0.1,1.4,0.2l-2.5,2.5c-0.5,0.6-1.2,2,0.1,3.3
			c0.5,0.5,1,0.7,1.6,0.7c1,0,1.7-0.6,1.7-0.7l2.5-2.5C89.5,1031.1,90.1,1033.3,87.7,1035.6z"/>
		<path class="st2" d="M74.1,1040.6c-0.8,0-1.5,0.7-1.5,1.5s0.7,1.5,1.5,1.5c0.8,0,1.5-0.7,1.5-1.5
			C75.6,1041.3,74.9,1040.6,74.1,1040.6z M74.1,1043c-0.5,0-0.8-0.4-0.8-0.8s0.4-0.8,0.8-0.8c0.5,0,0.8,0.4,0.8,0.8
			S74.6,1043,74.1,1043z"/>
	</g>
</g>
</svg>
