<?xml version="1.0" encoding="utf-8"?>
<!-- Generator: Adobe Illustrator 21.0.0, SVG Export Plug-In . SVG Version: 6.00 Build 0)  -->
<svg version="1.1"
	 id="Calque_1" xmlns:cc="http://creativecommons.org/ns#" xmlns:dc="http://purl.org/dc/elements/1.1/" xmlns:inkscape="http://www.inkscape.org/namespaces/inkscape" xmlns:rdf="http://www.w3.org/1999/02/22-rdf-syntax-ns#" xmlns:sodipodi="http://sodipodi.sourceforge.net/DTD/sodipodi-0.dtd" xmlns:svg="http://www.w3.org/2000/svg"
	 xmlns="http://www.w3.org/2000/svg" xmlns:xlink="http://www.w3.org/1999/xlink" x="0px" y="0px" viewBox="0 0 283.5 283.5"
	 style="enable-background:new 0 0 283.5 283.5;" xml:space="preserve">
<style type="text/css">
	.st0{fill:#FFFFFF;stroke:#FFFFFF;stroke-miterlimit:10;}
</style>
<g transform="translate(0,-952.36218)">
	<path class="st0" d="M237,1084l27.3,120c1.1,4.8-3.1,10.1-8,10.1H27.2c-4.9,0-9.1-5.3-8-10.1l27.3-120c0.8-3.6,4.3-6.3,8-6.3h38.2
		c4.3-0.1,8.3,3.9,8.3,8.2s-4,8.2-8.3,8.2H61l-23.5,103.6H246l-23.5-103.6h-31.6c-4.3,0.1-8.3-3.9-8.3-8.2s4-8.2,8.3-8.2H229
		C232.8,1077.8,236.2,1080.8,237,1084z"/>
	<path class="st0" d="M141.7,1181.4c2-0.1,4.2-0.9,5.6-2.2l46.4-43.6c2.7-3,3.8-8.6,0.7-11.9c-3-3.3-8.9-3.2-11.9,0.1l-32.6,30.7
		V982.3c0-4.5-3.7-8.2-8.2-8.2c-4.5,0-8.2,3.7-8.2,8.2v172.1l-32.6-30.7c-2.8-2.8-8.9-3.3-11.9-0.1c-3.1,3.2-2.1,9.1,0.7,11.9
		l46.4,43.6C137.7,1180.6,139.6,1181.4,141.7,1181.4L141.7,1181.4z"/>
</g>
</svg>
